
        <svg xmlns="http://www.w3.org/2000/svg" xmlns:xlink="http://www.w3.org/1999/xlink" version="1.1" width="150.9344262295076" 
        height="40.0983606557377" viewBox="0 0 3163.9344262295076 754.0983606557377">
			
			<g transform="scale(8.19672131147541) translate(10, 10)">
				<defs id="SvgjsDefs4549"><linearGradient id="SvgjsLinearGradient4556"><stop id="SvgjsStop4557" stop-color="#7f00ff" offset="0"></stop><stop id="SvgjsStop4558" stop-color="#e100ff" offset="1"></stop></linearGradient><linearGradient id="SvgjsLinearGradient4559"><stop id="SvgjsStop4560" stop-color="#00ddff" offset="0"></stop><stop id="SvgjsStop4561" stop-color="#ff00d4" offset="1"></stop></linearGradient><linearGradient id="SvgjsLinearGradient4562"><stop id="SvgjsStop4563" stop-color="#51504f" offset="0"></stop><stop id="SvgjsStop4564" stop-color="#939598" offset="0.5"></stop><stop id="SvgjsStop4565" stop-color="#51504f" offset="1"></stop></linearGradient></defs><g id="SvgjsG4550" featureKey="symbolFeature-0" transform="matrix(0.8393702417787435,0,0,0.8393702417787435,-4.196861615209658,-5.9684260367092135)" fill="url(#SvgjsLinearGradient4556)"><path xmlns="http://www.w3.org/2000/svg" d="M92.667,37.9879l-2.2797-7.0149c-0.1488-0.4583-0.5756-0.7684-1.0578-0.7684H65.5981L58.3453,7.879  c-0.1488-0.4583-0.5756-0.7684-1.0578-0.7684h-7.3765h-7.3743c-0.4822,0-0.9091,0.3101-1.0579,0.7684l-7.3337,22.5689H10.6705  c-0.4822,0-0.909,0.3101-1.0578,0.7684l-2.2786,7.0148L5.0545,45.246c-0.1488,0.4583,0.0141,0.9601,0.404,1.2435l19.1984,13.9484  L17.403,82.7634c-0.1488,0.4583,0.0141,0.9601,0.404,1.2435l5.9668,4.335c0.0011,0.0008,0.0025,0.001,0.0036,0.0018l5.9633,4.3332  c0.1954,0.1417,0.4246,0.2123,0.6537,0.2123c0.2292,0,0.4584-0.0706,0.6538-0.2123l19.1985-13.9482l18.9906,13.7983  c0.1955,0.1417,0.4247,0.2123,0.6538,0.2123c0.2292,0,0.4583-0.0706,0.6538-0.2123l5.9679-4.3361l5.9669-4.335  c0.3899-0.2834,0.5528-0.7852,0.404-1.2435l-7.3336-22.5684l18.9913-13.7989c0.3899-0.2834,0.5528-0.7852,0.404-1.2435  L92.667,37.9879z M88.5215,32.4289l1.78,5.478l-5.9775,4.3427l-11.7761,8.5549l-0.3786-1.165l-1.1776-3.6251l9.3367-6.783  c0.3899-0.2835,0.5528-0.7852,0.404-1.2435c-0.1488-0.4584-0.5756-0.7684-1.0578-0.7684l-30.3823-0.0011l1.5562-4.7895h6.5662H64.79  H88.5215z M44.3438,45.246c-0.0005,0.0017,0.0001,0.0035-0.0004,0.0053l-2.3911,7.3598l-4.2834-3.1116l8.5549-26.3282l2.6467,8.1454  l-0.3297,1.015l-1.8381,5.6551L44.3438,45.246z M53.8686,46.7019l2.3669,7.2837l-6.1958,4.5015l-6.1957-4.501l2.3668-7.2841H53.8686  z M48.1476,59.8618l-4.2828,3.1116L21.4692,46.7019h8.5636L48.1476,59.8618z M44.5187,65.248l6.1753-4.486  c0.001-0.0007,0.0016-0.0017,0.0026-0.0024l6.2618-4.5493l1.6356,5.0349l-3.1498,2.2885l-19.2455,13.982l2.6458-8.1453  L44.5187,65.248z M56.207,46.7019h5.2942l8.554,26.3288l-6.9277-5.0349l-0.6911-2.1261L56.207,46.7019z M62.3094,44.4771h-7.6328  c-0.0016,0-0.003,0.0005-0.0045,0.0005h-7.7385l1.6359-5.035l27.6817,0.001l-6.9297,5.0339h-7.0087  C62.3116,44.4777,62.3105,44.4771,62.3094,44.4771z M56.4794,9.3349l6.7803,20.8698h-5.037L51.4418,9.3349H56.4794z   M36.0115,31.9037c0.0002-0.0007-0.0001-0.0013,0.0001-0.002l7.3329-22.5668h5.7582l6.7809,20.8698h-5.0354l-3.5667-10.9758  c-0.1488-0.4583-0.5756-0.7684-1.0579-0.7684c-0.4822,0-0.909,0.3101-1.0578,0.7684l-9.3893,28.8954l-4.0745-2.9597l2.0297-6.246  L36.0115,31.9037z M11.4785,32.6722h21.9438l-1.5567,4.7906H9.9222L11.4785,32.6722z M7.4199,45.1651L9.2,39.687h21.9429  l-1.5567,4.7906H18.046c-0.4822,0-0.9091,0.3101-1.0579,0.7684s0.0142,0.9601,0.4041,1.2435l24.5804,17.8586l-4.0748,2.9604  l-0.0032-0.0023l-5.3085-3.8578l-5.9679-4.335c-0.0002-0.0001-0.0003-0.0001-0.0004-0.0001L7.4199,45.1651z M19.7684,82.6826  l6.7803-20.8702l4.0757,2.9612l-6.7811,20.8691L19.7684,82.6826z M49.5927,76.454c-0.0007,0.0005-0.0012,0.0012-0.0018,0.0017  L30.3944,90.4022l-4.6581-3.3847l4.9995-15.3885l1.781-5.4806l2.0873,1.5164l1.9863,1.4436l-3.5655,10.9757  c-0.1488,0.4583,0.0141,0.9601,0.404,1.2435c0.391,0.2835,0.9166,0.2835,1.3076,0l24.5809-17.8584l1.5563,4.7893l-2.3778,1.7275  l-2.9338,2.131c-0.0008,0.0005-0.0018,0.0007-0.0025,0.0013L49.5927,76.454z M69.8912,90.2524L52.1389,77.3541l4.0747-2.9604  L73.967,87.2914L69.8912,90.2524z M80.5183,82.5316l-4.6589,3.3851l-17.7532-12.898l3.2647-2.3719l0.8104-0.5886l9.3358,6.7841  c0.391,0.2834,0.9166,0.2834,1.3076,0c0.3899-0.2834,0.5528-0.7852,0.404-1.2435l-9.3882-28.8968h5.0353L80.5183,82.5316z   M74.8273,57.8193l-1.5563-4.7905l5.9775-4.3427l11.7762-8.555l1.5552,4.7896L74.8273,57.8193z"></path></g><g id="SvgjsG4551" featureKey="nameFeature-0" transform="matrix(0.6655492133569021,0,0,0.6655492133569021,95.99999809584843,3.0400345564487186)" fill="url(#SvgjsLinearGradient4559)"><path d="M18.88 27.84 l8.96 -15.88 l9.92 0 l0 28.04 l-9.36 0 l0 -10.48 l-5.96 10.48 l-7.16 0 l-9.08 -15.92 l0 -5.88 l10.92 18.68 l3.52 0 l10.88 -18.68 l0 18.68 l3.12 0 l0 -21.8 l-5 0 l-10.84 18.72 l-10.68 -18.72 l-5 0 l0 21.8 l3.08 0 l0 -5.88 l3.12 5.36 l0 3.64 l-9.32 0 l0 -28.04 l9.92 0 z M62.76 11.96 l11.32 0 l-10.68 15.36 l0 12.68 l-9.36 0 l0 -12.6 l-10.68 -15.44 l11.36 0 l2.24 3.28 l-1.84 2.76 l-2 -2.92 l-3.8 0 l7.84 11.32 l0.04 0.04 l0 10.44 l3.2 0 l0 -10.48 l7.72 -11.32 l-3.8 0 l-5.6 8.12 l-1.8 -2.56 z M93.48 30.32 l2.28 -2.12 l12.84 11.8 l-13.8 0 l-10.48 -9.6 l16.24 -15.32 l-4.52 0 l-11.72 11.32 l0 -11.32 l-3.12 0 l0 21.8 l5.52 0 l3.44 3.12 l-12.08 0 l0 -28.04 l9.36 0 l0 6.88 l7.36 -6.88 l13.64 0 l-19.56 18.4 l7.12 6.52 l4.6 0 z M144.79999999999998 11.96 l0 9.36 l-21.24 0 l0 3.12 l15.76 0 l0 3.12 l-18.88 0 l0 -9.36 l21.24 0 l0 -3.12 l-24.36 0 l0 21.8 l24.36 0 l0 -3.12 l-21.24 0 l0 -3.12 l24.36 0 l0 9.36 l-30.6 0 l0 -28.04 l30.6 0 z M153.51999999999998 15.079999999999998 l0 15.56 l27.64 0 l0 9.36 l-30.76 0 l0 -3.12 l27.68 0 l0 -3.12 l-27.68 0 l0 -21.8 l9.36 0 l0 15.6 l-3.12 0 l0 -12.48 l-3.12 0 z M206.76 11.96 l17.2 0 c7.48 0.32 13.4 6.48 13.4 14 c0 7.56 -5.92 13.72 -13.4 14.04 l-17.2 0 l0 -21.8 l17.2 0 c4.04 0.32 7.24 3.64 7.24 7.8 c0 4 -3.08 7.44 -7.08 7.76 l-11.12 0 l0 -9.84 l3.12 0 l0 6.72 l7.84 -0.04 c2.36 -0.2 4.16 -2.24 4.16 -4.6 c0 -2.04 -1.28 -3.72 -3.08 -4.4 c-0.68 -0.28 -1.08 -0.28 -2.16 -0.28 l-13 0 l0 15.56 l14.08 0 c5.72 -0.32 10.28 -5.04 10.28 -10.92 c0 -5.8 -4.56 -10.56 -10.28 -10.88 l-17.2 0 l0 -3.12 z M250.71999999999997 40 l-9.36 0 l0 -28.04 l9.36 0 l0 21.8 l-3.12 0 l0 -18.68 l-3.12 0 l0 21.8 l6.24 0 l0 3.12 z M269.04 24.4 l17.92 0 l0 15.6 l-17.24 0 c-7.48 -0.32 -13.4 -6.48 -13.4 -14 c0 -7.56 5.92 -13.72 13.4 -14.04 l17.24 0 l0 9.4 l-17.24 0 c-2.36 0.2 -4.16 2.24 -4.16 4.6 c0 2.44 1.8 4.36 4.16 4.68 l10.96 0 l0 3.12 l-10.96 0 c-4.04 -0.32 -7.24 -3.64 -7.24 -7.8 c0 -4 3.08 -7.44 7.08 -7.76 l14.24 0 l0 -3.12 l-14.08 0 c-5.72 0.32 -10.28 5.08 -10.28 10.92 c0 5.8 4.56 10.56 10.28 10.88 l14.08 0 l0 -9.36 l-14.76 0 l0 -3.12 z M301.92 40 l-9.36 0 l0 -28.04 l9.36 0 l0 21.8 l-3.12 0 l0 -18.68 l-3.12 0 l0 21.8 l6.24 0 l0 3.12 z M307.52 21.32 l0 -9.36 l30.6 0 l0 9.36 l-7.52 0 l0 -3.12 l4.4 0 l0 -3.12 l-24.36 0 l0 3.12 l10.64 0 l-0.04 18.68 l3.12 0 l0 -18.68 l3.12 0 l0 21.8 l-9.36 0 l0 -18.68 l-10.6 0 z M353.08 30.64 l1.8 -3.12 l5.44 9.36 l3.6 0 c-0.8 -1.28 -8.4 -14.28 -9.04 -15.56 l-7.84 13.6 l-2.92 5.08 l-10.8 0 c0.6 -1 4.64 -8.04 8.52 -14.8 c2.28 -3.96 4.8 -8.4 7.64 -13.24 l3.6 0 l-7.44 12.88 l-6.92 12.04 l3.6 0 c4.92 -8.68 8 -13.8 12.56 -21.8 c0.28 0.48 14.36 24.88 14.44 24.92 l-10.8 0 z M378.04 15.079999999999998 l0 15.56 l27.64 0 l0 9.36 l-30.76 0 l0 -3.12 l27.68 0 l0 -3.12 l-27.68 0 l0 -21.8 l9.36 0 l0 15.6 l-3.12 0 l0 -12.48 l-3.12 0 z"></path></g><g id="SvgjsG4552" featureKey="sloganFeature-0" transform="matrix(0.7646534959661891,0,0,0.7646534959661891,95.87322110725955,45.64663634699518)" fill="url(#SvgjsLinearGradient4562)"><path d="M12.412 5.888999999999999 l-4.6387 7.3535 l0 6.7578 l-2.9395 0 l0 -6.6895 l-4.668 -7.4219 l3.2422 0 l2.8809 4.8047 l2.8906 -4.8047 l3.2324 0 z M20.1904578125 20.19531 c-4.1504 0 -7.2168 -2.832 -7.2168 -7.2559 c0 -4.4336 3.0664 -7.2461 7.2168 -7.2461 c4.1406 0 7.207 2.8125 7.207 7.2461 c0 4.4238 -3.0664 7.2559 -7.207 7.2559 z M20.1904578125 17.5098 c2.4316 0 4.2969 -1.709 4.2969 -4.5703 c0 -2.8516 -1.8652 -4.5508 -4.2969 -4.5508 s-4.2969 1.6992 -4.2969 4.5508 c0 2.8613 1.8652 4.5703 4.2969 4.5703 z M34.8633 20.19531 c-3.0957 0 -5.5176 -1.582 -5.5176 -5.1367 l0 -9.1699 l2.9297 0 l0 8.7695 c0 2.1484 1.1426 2.9492 2.5879 2.9492 c1.4551 0 2.6074 -0.81055 2.6074 -2.9492 l0 -8.7695 l2.9297 0 l0 9.1699 c0 3.5547 -2.4316 5.1367 -5.5371 5.1367 z M50.7567921875 20 l-3.6719 -6.2109 l-0.84961 0 l0 6.2109 l-2.9297 0 l0 -14.111 l5.1172 0 c3.1934 0 4.541 1.8848 4.541 4.2188 c0 1.8945 -1.0742 3.125 -2.9883 3.5352 l4.248 6.3574 l-3.4668 0 z M46.2353921875 8.32 l0 3.3691 l1.7285 0 c1.5625 0 2.1973 -0.66406 2.1973 -1.6797 c0 -1.0059 -0.63477 -1.6895 -2.1973 -1.6895 l-1.7285 0 z M60.6592078125 20 l0 -14.111 l5.1074 0 c4.502 0 6.7285 2.832 6.7285 7.0508 c0 4.2285 -2.2266 7.0605 -6.7285 7.0605 l-5.1074 0 z M63.5889078125 17.4121 l2.0313 0 c2.5977 0 3.7891 -1.6211 3.7891 -4.4727 s-1.1914 -4.4727 -3.7891 -4.4727 l-2.0313 0 l0 8.9453 z M74.785184375 20 l0 -14.111 l2.9297 0 l0 14.111 l-2.9297 0 z M87.0068484375 20.19531 c-4.0723 0 -7.0703 -2.8125 -7.0703 -7.2168 c0 -4.4629 3.0664 -7.2852 7.2168 -7.2852 c2.7246 0 4.9805 1.2012 6.2109 3.3203 l-2.5684 1.3672 c-0.74219 -1.4453 -2.0703 -2.1387 -3.6426 -2.1387 c-2.4414 0 -4.2773 1.6797 -4.2773 4.668 c0 2.8809 1.7188 4.7363 4.3848 4.7363 c1.8066 0 3.4668 -0.89844 3.8672 -2.959 l-3.8574 0 l0 -2.3535 l6.6309 0 l0 7.666 l-2.3047 0 l0 -1.9531 c-0.9082 1.3379 -2.4316 2.1484 -4.5898 2.1484 z M96.484403125 20 l0 -14.111 l2.9297 0 l0 14.111 l-2.9297 0 z M110.7863671875 5.888999999999999 l0 2.5781 l-3.3496 0 l0 11.533 l-2.9004 0 l0 -11.533 l-3.3691 0 l0 -2.5781 l9.6191 0 z M121.99265625 20 l-1.0254 -2.9102 l-5.9277 0 l-1.0254 2.9102 l-2.998 0 l5.1953 -14.111 l3.584 0 l5.1953 14.111 l-2.998 0 z M115.89845625 14.6387 l4.209 0 l-2.0996 -5.9863 z M129.5850015625 17.4121 l4.4238 0 l0 2.5879 l-7.3535 0 l0 -14.111 l2.9297 0 l0 11.523 z M145.2197546875 20.19531 c-3.0273 0 -5.3906 -1.4551 -5.8203 -4.1016 l3.0273 -0.69336 c0.19531 1.582 1.3574 2.4023 2.9102 2.4023 c1.1914 0 2.1387 -0.52734 2.1289 -1.7188 c-0.0097656 -1.3281 -1.5723 -1.748 -3.291 -2.2754 c-2.0703 -0.64453 -4.2871 -1.4063 -4.2871 -4.0039 c0 -2.627 2.1484 -4.1113 4.9805 -4.1113 c2.4805 0 4.9805 1.0059 5.5469 3.7109 l-2.832 0.70313 c-0.26367 -1.4063 -1.2109 -2.0215 -2.5391 -2.0215 c-1.1816 0 -2.1875 0.48828 -2.1875 1.6504 c0 1.084 1.3867 1.4453 2.9883 1.9238 c2.1289 0.64453 4.6484 1.4648 4.6484 4.2773 c0 2.998 -2.5098 4.2578 -5.2734 4.2578 z M158.99416875 20.19531 c-4.1504 0 -7.2168 -2.832 -7.2168 -7.2559 c0 -4.4336 3.0664 -7.2461 7.2168 -7.2461 c4.1406 0 7.207 2.8125 7.207 7.2461 c0 4.4238 -3.0664 7.2559 -7.207 7.2559 z M158.99416875 17.5098 c2.4316 0 4.2969 -1.709 4.2969 -4.5703 c0 -2.8516 -1.8652 -4.5508 -4.2969 -4.5508 s-4.2969 1.6992 -4.2969 4.5508 c0 2.8613 1.8652 4.5703 4.2969 4.5703 z M171.3721109375 17.4121 l4.4238 0 l0 2.5879 l-7.3535 0 l0 -14.111 l2.9297 0 l0 11.523 z M182.802753125 20.19531 c-3.0957 0 -5.5176 -1.582 -5.5176 -5.1367 l0 -9.1699 l2.9297 0 l0 8.7695 c0 2.1484 1.1426 2.9492 2.5879 2.9492 c1.4551 0 2.6074 -0.81055 2.6074 -2.9492 l0 -8.7695 l2.9297 0 l0 9.1699 c0 3.5547 -2.4316 5.1367 -5.5371 5.1367 z M199.4289453125 5.888999999999999 l0 2.5781 l-3.3496 0 l0 11.533 l-2.9004 0 l0 -11.533 l-3.3691 0 l0 -2.5781 l9.6191 0 z M201.191434375 20 l0 -14.111 l2.9297 0 l0 14.111 l-2.9297 0 z M213.5595984375 20.19531 c-4.1504 0 -7.2168 -2.832 -7.2168 -7.2559 c0 -4.4336 3.0664 -7.2461 7.2168 -7.2461 c4.1406 0 7.207 2.8125 7.207 7.2461 c0 4.4238 -3.0664 7.2559 -7.207 7.2559 z M213.5595984375 17.5098 c2.4316 0 4.2969 -1.709 4.2969 -4.5703 c0 -2.8516 -1.8652 -4.5508 -4.2969 -4.5508 s-4.2969 1.6992 -4.2969 4.5508 c0 2.8613 1.8652 4.5703 4.2969 4.5703 z M232.646640625 5.888999999999999 l2.9199 0 l0 14.111 l-3.3887 0 l-6.25 -10.088 l0 10.088 l-2.9199 0 l0 -14.111 l3.3496 0 l6.2891 10.029 l0 -10.029 z"></path></g>
			</g>
		</svg>
	